# xmcd
#
# Track frame offsets: 
#        150
#        9632
#        17591
#        31866
#        42289
#        52686
#        70191
#        80492
#        91525
#        102940
#        113072
#        129248
#        138613
#        154581
#        172227
#        179269
#        186959
#        199851
#        209530
#        218442
#        232001
#        249955
#
# Disc length: 3474 seconds
#
# Revision: 0
# Processed by: cddbd v1.4PL0 Copyright (c) Steve Scherf et al.
# Submitted via: ExactAudioCopy v0.95a3
#
DISCID=1f0d9016
DTITLE=Various Artist - De la noi, din Bucovina
DYEAR=2003
DGENRE=folclor
TTITLE0=Badita se chiosmondeste -Lucica Paltineanu
TTITLE1=Taraneasca din Capul Codrului - Dinu Croitor
TTITLE2=Doamne, multe eu as face - Silvia Semeniuc
TTITLE3=Astazi am sa merg la joc - Cristi Munteanu
TTITLE4=Hora dinspre ziua - Dan Decebal Chitic 
TTITLE5=Hora celori logoditi - Loredana Luca
TTITLE6=Sarba de la Dorna - Ghiocel Cioltan
TTITLE7=Nevasta de-a treia casa - Sorin Filip
TTITLE8=Batuta - Adrian Semeniuc
TTITLE9=Hai Costica hai la joc - Luminita Iovu
TTITLE10=Hai noroc si la multi ani - Alexandru Recolciuc
TTITLE11=Taraneasca - Loredana Luca
TTITLE12=Vai,sarac bordeiul meu - Adrian Semeniuc
TTITLE13=Hora gospodarilor - Lucica Paltineanu
TTITLE14=N-am mai fost la joc de-o luna - Sorin Filip
TTITLE15=Batuta de la Lespezi - Dan Decebal Chitic
TTITLE16=Hai la joc,la joc, la joc - Alexandru Recolciuc
TTITLE17=Hai la joc bade Ilie - Luminita Iovu
TTITLE18=Rusasca lui Catargiu - Ghiocel Cioltan
TTITLE19=Lautar cu scripca veche - Silvia Semeniuc
TTITLE20=Eu ma duc mindro cu leatul - Cristi Munteanu
TTITLE21=Hora din Reuseni - Dinu Croitor
EXTD=
EXTT0=
EXTT1=
EXTT2=
EXTT3=
EXTT4=
EXTT5=
EXTT6=
EXTT7=
EXTT8=
EXTT9=
EXTT10=
EXTT11=
EXTT12=
EXTT13=
EXTT14=
EXTT15=
EXTT16=
EXTT17=
EXTT18=
EXTT19=
EXTT20=
EXTT21=
PLAYORDER=
